<svg width="210" height="50" viewBox="0 0 210 50" fill="none" xmlns="http://www.w3.org/2000/svg">
<path d="M9.376 10.56V21.76H24.416V28.864H9.376V40.704H26.336V48H0.416V3.264H26.336V10.56H9.376ZM49.2625 39.744L58.2225 12.544H67.7585L54.6385 48H43.7585L30.7025 12.544H40.3025L49.2625 39.744ZM70.487 30.144C70.487 26.56 71.191 23.3813 72.599 20.608C74.0497 17.8347 75.991 15.7013 78.423 14.208C80.8977 12.7147 83.6497 11.968 86.679 11.968C89.3243 11.968 91.6283 12.5013 93.591 13.568C95.5963 14.6347 97.1963 15.9787 98.391 17.6V12.544H107.415V48H98.391V42.816C97.239 44.48 95.639 45.8667 93.591 46.976C91.5857 48.0427 89.2603 48.576 86.615 48.576C83.6283 48.576 80.8977 47.808 78.423 46.272C75.991 44.736 74.0497 42.5813 72.599 39.808C71.191 36.992 70.487 33.7707 70.487 30.144ZM98.391 30.272C98.391 28.096 97.9643 26.24 97.111 24.704C96.2577 23.1253 95.1057 21.9307 93.655 21.12C92.2043 20.2667 90.647 19.84 88.983 19.84C87.319 19.84 85.783 20.2453 84.375 21.056C82.967 21.8667 81.815 23.0613 80.919 24.64C80.0657 26.176 79.639 28.0107 79.639 30.144C79.639 32.2773 80.0657 34.1547 80.919 35.776C81.815 37.3547 82.967 38.5707 84.375 39.424C85.8257 40.2773 87.3617 40.704 88.983 40.704C90.647 40.704 92.2043 40.2987 93.655 39.488C95.1057 38.6347 96.2577 37.44 97.111 35.904C97.9643 34.3253 98.391 32.448 98.391 30.272ZM125.126 0.639999V48H116.166V0.639999H125.126ZM167.451 12.544V48H158.427V43.52C157.275 45.056 155.76 46.272 153.883 47.168C152.048 48.0213 150.043 48.448 147.867 48.448C145.093 48.448 142.64 47.872 140.507 46.72C138.373 45.5253 136.688 43.7973 135.451 41.536C134.256 39.232 133.659 36.5013 133.659 33.344V12.544H142.619V32.064C142.619 34.88 143.323 37.056 144.731 38.592C146.139 40.0853 148.059 40.832 150.491 40.832C152.965 40.832 154.907 40.0853 156.315 38.592C157.723 37.056 158.427 34.88 158.427 32.064V12.544H167.451Z" fill="#020F59"/>
<path d="M183.075 23.296C178.808 21.0773 176.675 17.6427 176.675 12.992C176.675 10.688 177.251 8.59733 178.403 6.72C179.598 4.8 181.368 3.28533 183.715 2.176C186.104 1.024 189.006 0.447998 192.419 0.447998C195.832 0.447998 198.712 1.024 201.059 2.176C203.448 3.28533 205.219 4.8 206.371 6.72C207.566 8.59733 208.163 10.688 208.163 12.992C208.163 15.3387 207.587 17.408 206.435 19.2C205.283 20.9493 203.747 22.3147 201.827 23.296C204.174 24.32 206.008 25.8133 207.331 27.776C208.654 29.7387 209.315 32.064 209.315 34.752C209.315 37.6533 208.568 40.192 207.075 42.368C205.624 44.5013 203.619 46.144 201.059 47.296C198.499 48.448 195.619 49.024 192.419 49.024C189.219 49.024 186.339 48.448 183.779 47.296C181.262 46.144 179.256 44.5013 177.763 42.368C176.312 40.192 175.587 37.6533 175.587 34.752C175.587 32.064 176.248 29.7387 177.571 27.776C178.894 25.7707 180.728 24.2773 183.075 23.296ZM199.459 14.272C199.459 12.1813 198.819 10.56 197.539 9.408C196.302 8.256 194.595 7.68 192.419 7.68C190.286 7.68 188.579 8.256 187.299 9.408C186.062 10.56 185.443 12.2027 185.443 14.336C185.443 16.256 186.083 17.792 187.363 18.944C188.686 20.096 190.371 20.672 192.419 20.672C194.467 20.672 196.152 20.096 197.475 18.944C198.798 17.7493 199.459 16.192 199.459 14.272ZM192.419 27.2C189.987 27.2 188.003 27.8187 186.467 29.056C184.974 30.2933 184.227 32.064 184.227 34.368C184.227 36.5013 184.952 38.2507 186.403 39.616C187.896 40.9387 189.902 41.6 192.419 41.6C194.936 41.6 196.92 40.9173 198.371 39.552C199.822 38.1867 200.547 36.4587 200.547 34.368C200.547 32.1067 199.8 30.3573 198.307 29.12C196.814 27.84 194.851 27.2 192.419 27.2Z" fill="black"/>
</svg>
